<svg xmlns="http://www.w3.org/2000/svg" width="8" height="8" fill="none">
  <g clip-path="url(#a)">
    <path stroke="#5CCFE6" stroke-width=".5" d="M2 2.75h4v3H2z"/>
    <path stroke="#F66" stroke-width=".75" d="m1.5 1.5 5 5"/>
    <circle cx="4" cy="4" r="3.63" stroke="#F66" stroke-width=".75"/>
    <path fill="#5CCFE6" stroke="#5CCFE6" stroke-width=".5" d="M2 2.25h4v.5H2z"/>
    <path fill="#000" d="M2.96 2.26v.59h-.08v-.7H3l.24.59v-.59h.08v.7H3.2l-.24-.6Zm.74.6c-.04 0-.08 0-.11-.02a.2.2 0 0 1-.08-.07.33.33 0 0 1-.04-.12.75.75 0 0 1 0-.3l.04-.12a.2.2 0 0 1 .08-.06.23.23 0 0 1 .11-.03c.04 0 .08 0 .11.02a.2.2 0 0 1 .08.07l.04.12a.75.75 0 0 1 0 .3c0 .05-.02.09-.04.12a.2.2 0 0 1-.08.07.24.24 0 0 1-.11.02Zm0-.07c.03 0 .05 0 .07-.02a.14.14 0 0 0 .05-.04.2.2 0 0 0 .03-.08v-.3a.2.2 0 0 0-.03-.07.13.13 0 0 0-.12-.07c-.03 0-.05 0-.07.02a.13.13 0 0 0-.05.05.22.22 0 0 0-.03.07v.3c0 .03.02.06.03.08l.05.04.07.02Zm.39.06-.05-.7h.07l.03.4.01.21h.01l.1-.43h.09l.09.43.02-.2.03-.4h.08l-.06.69h-.12l-.09-.42-.09.42H4.1Zm.67-.6v.6h-.08v-.7h.12l.24.59v-.59h.08v.7H5l-.24-.6Z"/>
  </g>
  <defs>
    <clipPath id="a">
      <path fill="#fff" d="M0 0h8v8H0z"/>
    </clipPath>
  </defs>
</svg>
