<svg width="8" height="8" viewBox="0 0 8 8" fill="none" xmlns="http://www.w3.org/2000/svg">
<g clip-path="url(#clip0_2_2)">
<rect x="2" y="2.75" width="4" height="3" stroke="#5CCFE6" stroke-width="0.5"/>
<path d="M1.5 1.5L6.5 6.5" stroke="#FF6666" stroke-width="0.75"/>
<circle cx="4" cy="4" r="3.625" stroke="#FF6666" stroke-width="0.75"/>
<rect x="2" y="2.25" width="4" height="0.5" fill="#5CCFE6" stroke="#5CCFE6" stroke-width="0.5"/>
<path d="M2.96378 2.259H2.95678V2.85H2.88078V2.152H2.99978L3.23778 2.737H3.24478V2.152H3.32078V2.85H3.20178L2.96378 2.259ZM3.70039 2.862C3.65772 2.862 3.62106 2.854 3.59039 2.838C3.55972 2.82133 3.53439 2.79767 3.51439 2.767C3.49439 2.73633 3.47972 2.69867 3.47039 2.654C3.46106 2.60933 3.45639 2.55833 3.45639 2.501C3.45639 2.44433 3.46106 2.39367 3.47039 2.349C3.47972 2.30367 3.49439 2.26567 3.51439 2.235C3.53439 2.20433 3.55972 2.181 3.59039 2.165C3.62106 2.14833 3.65772 2.14 3.70039 2.14C3.74306 2.14 3.77972 2.14833 3.81039 2.165C3.84106 2.181 3.86639 2.20433 3.88639 2.235C3.90639 2.26567 3.92106 2.30367 3.93039 2.349C3.93972 2.39367 3.94439 2.44433 3.94439 2.501C3.94439 2.55833 3.93972 2.60933 3.93039 2.654C3.92106 2.69867 3.90639 2.73633 3.88639 2.767C3.86639 2.79767 3.84106 2.82133 3.81039 2.838C3.77972 2.854 3.74306 2.862 3.70039 2.862ZM3.70039 2.789C3.72839 2.789 3.75206 2.78367 3.77139 2.773C3.79072 2.76167 3.80672 2.746 3.81939 2.726C3.83206 2.706 3.84106 2.682 3.84639 2.654C3.85239 2.62533 3.85539 2.59333 3.85539 2.558V2.444C3.85539 2.40933 3.85239 2.37767 3.84639 2.349C3.84106 2.32033 3.83206 2.296 3.81939 2.276C3.80672 2.256 3.79072 2.24067 3.77139 2.23C3.75206 2.21867 3.72839 2.213 3.70039 2.213C3.67239 2.213 3.64872 2.21867 3.62939 2.23C3.61006 2.24067 3.59406 2.256 3.58139 2.276C3.56872 2.296 3.55939 2.32033 3.55339 2.349C3.54806 2.37767 3.54539 2.40933 3.54539 2.444V2.558C3.54539 2.59333 3.54806 2.62533 3.55339 2.654C3.55939 2.682 3.56872 2.706 3.58139 2.726C3.59406 2.746 3.61006 2.76167 3.62939 2.773C3.64872 2.78367 3.67239 2.789 3.70039 2.789ZM4.09 2.85L4.035 2.152H4.11L4.139 2.552L4.154 2.763H4.162L4.254 2.334H4.348L4.44 2.763H4.448L4.463 2.552L4.492 2.152H4.565L4.51 2.85H4.389L4.304 2.433H4.296L4.211 2.85H4.09ZM5.05461 2.5V2.279H5.04661L4.89961 2.638L4.75261 2.279H4.74461V2.5V2.85H4.66761V2.152H4.77561L4.89861 2.46H4.90461L5.02761 2.152H5.13161V2.85H5.05461V2.5Z" fill="black"/>
</g>
<defs>
<clipPath id="clip0_2_2">
<rect width="8" height="8" fill="white"/>
</clipPath>
</defs>
</svg>
